<?xml version="1.0" ?><!DOCTYPE svg  PUBLIC '-//W3C//DTD SVG 1.1//EN'  'http://www.w3.org/Graphics/SVG/1.1/DTD/svg11.dtd'><svg enable-background="new 0 0 128 128" id="Слой_1" version="1.1" viewBox="0 0 128 128" xml:space="preserve" xmlns="http://www.w3.org/2000/svg" xmlns:xlink="http://www.w3.org/1999/xlink"><g><circle cx="67.1" cy="64" fill="#D6D6D6" r="62"/><g><g><path d="M79.9,55.2L62.4,72.8l26.3,26.3c4.8,4.8,12.7,4.8,17.5,0l0,0c4.8-4.8,4.8-12.7,0-17.5L79.9,55.2z" fill="#D6AB7F"/></g><g><rect fill="#EFEFEF" height="24.8" transform="matrix(-0.7071 -0.7071 0.7071 -0.7071 82.0367 173.6675)" width="16.5" x="68.7" y="57.4"/></g><g><path d="M90.7,66L73.2,83.6c-0.5,0.5-0.5,1.3,0,1.8c0.2,0.2,0.6,0.4,0.9,0.4s0.6-0.1,0.9-0.4l17.5-17.5     c0.5-0.5,0.5-1.3,0-1.8C92,65.5,91.2,65.5,90.7,66z" fill="#62355C"/></g><g><path d="M107.1,80.6L80.8,54.4c-0.5-0.5-1.3-0.5-1.8,0L61.5,71.9c-0.2,0.2-0.4,0.6-0.4,0.9s0.1,0.6,0.4,0.9     l26.3,26.3c2.6,2.6,6,4,9.6,4s7.1-1.4,9.6-4C112.4,94.6,112.4,86,107.1,80.6z M105.3,98.2c-2.1,2.1-4.9,3.3-7.9,3.3     s-5.8-1.2-7.9-3.3L64.1,72.8L79.9,57l25.4,25.4C109.7,86.8,109.7,93.8,105.3,98.2z" fill="#62355C"/></g><path d="M85.7,61.1L85.7,61.1l-5.8-5.8l-5,5L62.4,72.8l5.8,5.8c3.5-2.2,6.8-4.8,9.8-7.8    c1.3-1.3,2.5-2.6,3.6-4l14.7,14.7c4.8,4.8,4.8,12.7,0,17.5v0c-1.1,1.1-2.4,2-3.8,2.6c4.5,2,10,1.1,13.7-2.6v0    c4.8-4.8,4.8-12.7,0-17.5L85.7,61.1z" fill="#593055" opacity="0.2"/><g><path d="M74.5,67.3c17.5-17.5,19.2-44.7,5.2-64.1C75.6,2.4,71.4,2,67.1,2c-34.2,0-62,27.8-62,62     c0,1.4,0.1,2.8,0.2,4.2C24.7,86.7,55.4,86.4,74.5,67.3z" fill="#EFEFEF"/></g><g><path d="M75.4,68.2c9.6-9.6,14.9-22.4,14.9-35.9c0-10.3-3.1-20.2-8.8-28.6c-1.2-0.3-2.4-0.5-3.6-0.7     c6.4,8.4,9.9,18.6,9.9,29.3c0,12.9-5,25-14.2,34.2S52.3,80.6,39.4,80.6c-12.9,0-25-5-34.2-14.2c0,0-0.1-0.1-0.1-0.1     c0,1.2,0.1,2.5,0.2,3.7c9.4,8.5,21.3,13.1,34,13.1C53,83.1,65.8,77.8,75.4,68.2z" fill="#62355C"/></g><g><path d="M68.6,61.5c16.1-16.1,16.1-42.3,0-58.4c-0.4-0.4-0.7-0.7-1.1-1c-0.2,0-0.3,0-0.5,0     C35.5,2,9.5,25.5,5.6,56c1.4,1.9,2.9,3.8,4.6,5.5C26.3,77.6,52.5,77.6,68.6,61.5z" fill="#FFFFFF"/></g><g><line fill="#D6AB7F" x1="-1.1" x2="16.5" y1="55.2" y2="72.8"/></g><g><path d="M59.9,52.7c11.3-11.3,11.3-29.6,0-40.9c-3.3-3.3-7.2-5.6-11.3-7C31.9,10,18.3,22,11,37.6     c1,5.5,3.7,10.9,8,15.1C30.3,64,48.6,64,59.9,52.7z" fill="#72B6D3"/></g><g opacity="0.7"><path d="M31.9,24.8c2.3-2.3,2.3-5.9,0-8.2c-0.8-0.8-1.8-1.3-2.9-1.6c-2.5,1.9-4.8,4-6.9,6.3     c0.1,1.3,0.7,2.5,1.6,3.5C26,27.1,29.7,27.1,31.9,24.8z" fill="#FEFEFC"/></g><g><path d="M39.4,62.4c8.1,0,15.6-3.1,21.3-8.8c11.8-11.8,11.8-30.9,0-42.7C57.8,8,54.3,5.7,50.6,4.2     c-1.4,0.4-2.8,0.8-4.1,1.3c4.7,1.2,9,3.7,12.5,7.2c10.8,10.8,10.8,28.3,0,39.1c-5.2,5.2-12.2,8.1-19.6,8.1     c-7.4,0-14.3-2.9-19.6-8.1c-4.5-4.5-7.2-10.3-7.9-16.2c-0.7,1.3-1.3,2.6-1.8,3.9c1.3,5.2,3.9,10.1,8,14.1     C23.8,59.3,31.4,62.4,39.4,62.4z" fill="#62355C"/></g><g><g><path d="M32.5,17.3c1.7,2.3,1.5,5.5-0.5,7.5c-2,2-5.2,2.2-7.5,0.5c-2.8,6.1-1.7,13.6,3.3,18.6      c6.5,6.5,16.9,6.5,23.4,0c6.5-6.5,6.5-16.9,0-23.4C46.1,15.5,38.6,14.5,32.5,17.3z" fill="#938993"/></g></g><g><g><path d="M39.4,14.5c-2.8,0-5.4,0.6-7.8,1.8c0.1,0.1,0.2,0.2,0.3,0.3c0.5,0.5,0.9,1.1,1.2,1.7      c2-0.9,4.1-1.4,6.3-1.4c4.1,0,7.9,1.6,10.8,4.5s4.5,6.7,4.5,10.8c0,4.1-1.6,7.9-4.5,10.8c-2.9,2.9-6.7,4.5-10.8,4.5      c-4.1,0-7.9-1.6-10.8-4.5c-2.9-2.9-4.5-6.7-4.5-10.8c0-2.2,0.5-4.3,1.4-6.3c-0.6-0.3-1.2-0.7-1.7-1.2c-0.1-0.1-0.2-0.2-0.3-0.3      c-1.2,2.4-1.8,5.1-1.8,7.8c0,4.7,1.8,9.2,5.2,12.6S34.7,50,39.4,50c4.7,0,9.2-1.8,12.6-5.2c3.4-3.4,5.2-7.8,5.2-12.6      c0-4.7-1.8-9.2-5.2-12.6C48.6,16.4,44.2,14.5,39.4,14.5z" fill="#343736"/></g></g><g opacity="0.5"><path d="M68.6,3.1c-0.4-0.4-0.7-0.7-1.1-1c-0.2,0-0.3,0-0.5,0C35.5,2,9.5,25.5,5.6,56c1.4,1.9,2.9,3.8,4.6,5.5     C19.7,32,39.2,12.6,68.6,3.1z" fill="#FEFEFC"/></g><g><path d="M39.4,74.8c11.4,0,22.1-4.4,30.1-12.5c16.6-16.6,16.6-43.6,0-60.2c0,0-0.1-0.1-0.1-0.1     C68.6,2,67.9,2,67.1,2c-0.5,0-0.9,0-1.4,0c0.7,0.6,1.4,1.2,2.1,1.9c15.6,15.6,15.6,41,0,56.7c-7.6,7.6-17.6,11.7-28.3,11.7     c-10.7,0-20.8-4.2-28.3-11.7c-2-2-3.7-4.2-5.2-6.4c-0.2,1.2-0.4,2.4-0.5,3.7c1.2,1.6,2.5,3.1,3.9,4.5     C17.4,70.4,28,74.8,39.4,74.8z" fill="#62355C"/></g></g></g></svg>